<svg width="101" height="101" viewBox="0 0 101 101" fill="none" xmlns="http://www.w3.org/2000/svg">
<path d="M34.1608 100.783C43.3608 100.783 50.8275 93.3168 50.8275 84.1168V67.4502H34.1608C24.9608 67.4502 17.4942 74.9168 17.4942 84.1168C17.4942 93.3168 24.9608 100.783 34.1608 100.783Z" fill="#0ACF83"/>
<path d="M17.4942 50.7833C17.4942 41.5834 24.9608 34.1167 34.1608 34.1167H50.8275V67.45H34.1608C24.9608 67.45 17.4942 59.9833 17.4942 50.7833Z" fill="#A259FF"/>
<path d="M17.4942 17.4501C17.4942 8.25011 24.9608 0.783447 34.1608 0.783447H50.8275V34.1168H34.1608C24.9608 34.1168 17.4942 26.6501 17.4942 17.4501Z" fill="#F24E1E"/>
<path d="M50.8275 0.783447H67.4942C76.6942 0.783447 84.1609 8.25011 84.1609 17.4501C84.1609 26.6501 76.6942 34.1168 67.4942 34.1168H50.8275V0.783447Z" fill="#FF7262"/>
<path d="M84.1609 50.7833C84.1609 59.9833 76.6942 67.45 67.4942 67.45C58.2942 67.45 50.8275 59.9833 50.8275 50.7833C50.8275 41.5834 58.2942 34.1167 67.4942 34.1167C76.6942 34.1167 84.1609 41.5834 84.1609 50.7833Z" fill="#1ABCFE"/>
</svg>
