<svg width="101" height="100" viewBox="0 0 101 100" fill="none" xmlns="http://www.w3.org/2000/svg">
<path d="M100.866 0H0.865723V100H100.866V0Z" fill="#F7DF1E"/>
<path d="M68.0403 78.1254C70.0546 81.4143 72.6752 83.8318 77.3102 83.8318C81.2038 83.8318 83.6911 81.8857 83.6911 79.1969C83.6911 75.9746 81.1355 74.8334 76.8498 72.9588L74.5006 71.9508C67.7197 69.0619 63.2149 65.4429 63.2149 57.7921C63.2149 50.7445 68.5848 45.3794 76.9768 45.3794C82.9514 45.3794 87.2467 47.4588 90.3419 52.9032L83.0244 57.6016C81.4133 54.7127 79.6752 53.5746 76.9768 53.5746C74.2244 53.5746 72.48 55.3207 72.48 57.6016C72.48 60.4207 74.226 61.5619 78.2578 63.308L80.607 64.3143C88.5911 67.7381 93.099 71.2286 93.099 79.0762C93.099 87.5365 86.453 92.1715 77.5276 92.1715C68.8006 92.1715 63.1625 88.0127 60.4038 82.5619L68.0403 78.1254ZM34.8451 78.9397C36.3213 81.5588 37.6641 83.773 40.8927 83.773C43.98 83.773 45.9276 82.5651 45.9276 77.8683V45.9159H55.3244V77.9953C55.3244 87.7254 49.6197 92.154 41.2927 92.154C33.7689 92.154 29.4117 88.2603 27.1959 83.5707L34.8451 78.9397Z" fill="black"/>
</svg>
