<svg width="101" height="100" viewBox="0 0 101 100" fill="none" xmlns="http://www.w3.org/2000/svg">
<path d="M0.0775146 0H100.078V100H0.0775146V0Z" fill="#017ACB"/>
<path d="M48.0932 37.0312H52.8901V45.3125H39.9213V82.1562L39.5776 82.25C39.1088 82.375 32.9369 82.375 31.6088 82.2344L30.5463 82.1406V45.3125H17.5775V37.0312L21.6869 36.9844C23.9369 36.9531 29.7182 36.9531 34.5307 36.9844C39.3432 37.0156 45.4369 37.0312 48.0932 37.0312ZM84.7026 78.25C82.7964 80.2656 80.7495 81.3906 77.3432 82.3125C75.8589 82.7187 75.6089 82.7344 72.2651 82.7188C68.9214 82.7031 68.6557 82.7031 67.0307 82.2812C62.8276 81.2031 59.437 79.0937 57.1245 76.1094C56.4682 75.2656 55.3901 73.5156 55.3901 73.2969C55.3901 73.2344 55.5463 73.0937 55.7495 73C55.9526 72.9062 56.3745 72.6406 56.7182 72.4375C57.062 72.2344 57.687 71.8594 58.1088 71.6406C58.5307 71.4219 59.7495 70.7031 60.812 70.0625C61.8745 69.4219 62.8432 68.9062 62.9526 68.9062C63.062 68.9062 63.2651 69.125 63.4213 69.3906C64.3588 70.9687 66.5463 72.9844 68.0932 73.6719C69.0464 74.0781 71.1557 74.5312 72.1714 74.5312C73.1089 74.5312 74.8276 74.125 75.7495 73.7031C76.7339 73.25 77.2339 72.7969 77.8276 71.8906C78.2339 71.25 78.2807 71.0781 78.2651 69.8594C78.2651 68.7344 78.2026 68.4219 77.8901 67.9062C77.0151 66.4687 75.8276 65.7187 71.0151 63.5937C66.0463 61.3906 63.812 60.0781 61.9995 58.3125C60.6557 57 60.3901 56.6406 59.5463 55C58.4526 52.8906 58.312 52.2031 58.2963 49.0625C58.2807 46.8594 58.3276 46.1406 58.562 45.3906C58.8901 44.2656 59.9526 42.0937 60.437 41.5469C61.437 40.375 61.7963 40.0156 62.4995 39.4375C64.6245 37.6875 67.937 36.5312 71.1089 36.4219C71.4682 36.4219 72.6557 36.4844 73.7651 36.5625C76.9526 36.8281 79.1245 37.6094 81.2182 39.2812C82.7964 40.5312 85.187 43.4688 84.9526 43.8594C84.7964 44.0938 78.562 48.25 78.1557 48.375C77.9057 48.4531 77.7339 48.3594 77.3901 47.9531C75.2651 45.4062 74.4057 44.8594 72.3432 44.7344C70.8745 44.6406 70.0932 44.8125 69.1089 45.4687C68.0776 46.1562 67.5776 47.2031 67.5776 48.6562C67.5932 50.7812 68.4057 51.7812 71.4057 53.2656C73.3432 54.2187 74.9995 55 75.1245 55C75.312 55 79.3276 57 80.3745 57.625C85.2495 60.4844 87.2339 63.4219 87.7495 68.4844C88.1245 72.2969 87.0464 75.7812 84.7026 78.25Z" fill="white"/>
</svg>
